<svg version="1.1" id="Layer_1" xmlns="http://www.w3.org/2000/svg" xmlns:xlink="http://www.w3.org/1999/xlink" x="0px" y="0px"
	 viewBox="0 0 3510.8 349.9" style="enable-background:new 0 0 3510.8 349.9;" xml:space="preserve">
<style type="text/css">
	.st0{opacity:0.35;fill:#FFFFFF;}
	.st1{fill:#FFFFFF;}
</style>
<title>waves</title>
<path class="st0" d="M1538.6,349.9c-8.5-5.8-17-11.5-25.4-17.2c-201.1-134-443.1-203.1-683.1-195.3
	c-227.5,7.5-446.5,85.8-635.3,212.4H1538.6z"/>
<path class="st1" d="M3510.8,204.2c-20.4-11.2-41.6-21.2-62.2-29.5c-82.7-33.3-189.3-48.1-283.7-29.4
	c-145.5,29-226.9,126.3-365.6,165.7c-122,34.6-266.8,18.4-392.2-11.3c-243.9-57.8-476.4-125.1-746.4-111c-148,7.7-291,38.8-421.4,82
	c-134.5,44.6-293.8,106.7-448.7,58.3c-131.8-41.3-200.4-132.1-322.4-182c-91.2-37.3-207.8-50.7-315.1-36.3
	C98,118.1,45.7,132.9,0,153.3v197.2h3510.8V204.2z"/>
<path class="st0" d="M3510.8,282.8c-117.5-97.4-255.6-201.2-413.4-176.4c-111.4,17.5-184.7,114-282.7,161
	c-127.3,61-227.1-16.9-341-69.3c-153.7-70.6-343.6-51.4-480.7,48.6c-42.4,31-83,70-125.2,103.2h1643V282.8z"/>
<path class="st0" d="M3510.8,161.9c-21.6-2.7-43-3.1-62.3-1.6c-73,5.5-142.2,33.4-209.5,62.3c-67.3,28.9-134.9,59.4-207.2,70.9
	c-241.2,38.3-440.7-133.6-663.5-189c-201.9-50.2-415.8-6.8-611.8,62.6c-199.5,70.6-405.5,169.7-612.9,127.5
	c-146-29.7-268.2-125.9-403.1-189.1C501.4-6.7,247.5-4.2,0,50.1v299.8h3510.8V161.9z"/>
</svg>
